<?xml version="1.0" encoding="utf-8"?>
<!-- Generator: Adobe Illustrator 24.3.0, SVG Export Plug-In . SVG Version: 6.00 Build 0)  -->
<svg version="1.1" id="Calque_1" xmlns="http://www.w3.org/2000/svg" xmlns:xlink="http://www.w3.org/1999/xlink" x="0px" y="0px"
	 viewBox="0 0 795 186" style="enable-background:new 0 0 795 186;" xml:space="preserve">
<style type="text/css">
	.st0{fill:#0F2C43;}
	.st1{fill:#E02C23;}
</style>
<path class="st0" d="M295.2,96.9c0,22-15.2,36-34.8,36c-8.7,0-15.9-2.7-21.1-8.5v32.6H219V61.9h19.4V70c5.1-6.1,12.6-9.1,22-9.1
	C279.9,60.9,295.2,74.9,295.2,96.9z M274.6,96.9c0-12.1-7.7-19.4-17.8-19.4c-10.1,0-17.8,7.3-17.8,19.4c0,12.1,7.7,19.4,17.8,19.4
	C266.9,116.2,274.6,109,274.6,96.9z"/>
<path class="st0" d="M306.2,40.8c0-6.4,5.1-11.3,12.6-11.3c7.5,0,12.6,4.7,12.6,10.9c0,6.8-5.1,11.7-12.6,11.7
	C311.3,52.1,306.2,47.2,306.2,40.8z M308.7,61.9H329v69.9h-20.3V61.9z"/>
<path class="st0" d="M392.3,131.8l-15.3-21.5l-15.9,21.5H339l26.9-35.2l-26-34.7h22.8l14.8,20.4l15.2-20.4h21.6l-26,34.2l27,35.8
	H392.3z"/>
<path class="st0" d="M485.7,91.9v39.9h-19v-8.7c-3.8,6.4-11.1,9.8-21.3,9.8c-16.4,0-26.1-9.1-26.1-21.2c0-12.4,8.7-20.9,30-20.9
	h16.1c0-8.7-5.2-13.8-16.1-13.8c-7.4,0-15.1,2.5-20.2,6.5l-7.3-14.2c7.7-5.5,19-8.5,30.2-8.5C473.4,60.9,485.7,70.7,485.7,91.9z
	 M465.5,109.7v-7.2h-13.9c-9.5,0-12.5,3.5-12.5,8.2c0,5.1,4.3,8.5,11.4,8.5C457.3,119.2,463.1,116.1,465.5,109.7z"/>
<path class="st1" d="M499.6,96.9c0-21.1,16.3-36,39-36c14.7,0,26.3,6.4,31.3,17.8l-15.7,8.5c-3.8-6.6-9.4-9.6-15.7-9.6
	c-10.3,0-18.3,7.2-18.3,19.4c0,12.2,8.1,19.4,18.3,19.4c6.4,0,12-2.9,15.7-9.6l15.7,8.6c-5.1,11.2-16.6,17.7-31.3,17.7
	C515.9,132.9,499.6,117.9,499.6,96.9z"/>
<path class="st1" d="M643.6,91.9v39.9h-19v-8.7c-3.8,6.4-11.1,9.8-21.3,9.8c-16.4,0-26.1-9.1-26.1-21.2c0-12.4,8.7-20.9,30-20.9
	h16.1c0-8.7-5.2-13.8-16.1-13.8c-7.4,0-15.1,2.5-20.2,6.5l-7.3-14.2c7.7-5.5,19-8.5,30.2-8.5C631.2,60.9,643.6,70.7,643.6,91.9z
	 M623.3,109.7v-7.2h-13.9c-9.5,0-12.5,3.5-12.5,8.2c0,5.1,4.3,8.5,11.4,8.5C615.1,119.2,620.9,116.1,623.3,109.7z"/>
<path class="st1" d="M705.3,60.9v18.7c-1.7-0.1-3-0.3-4.5-0.3c-11.2,0-18.6,6.1-18.6,19.5v33h-20.3V61.9h19.4v9.2
	C686.2,64.4,694.5,60.9,705.3,60.9z"/>
<path class="st1" d="M784.9,102.6H732c2,8.7,9.4,14,20,14c7.4,0,12.7-2.2,17.6-6.8l10.8,11.7c-6.5,7.4-16.3,11.3-28.9,11.3
	c-24.2,0-39.9-15.2-39.9-36c0-20.9,16-36,37.3-36c20.5,0,36.4,13.8,36.4,36.3C785.3,98.7,785,100.9,784.9,102.6z M731.7,90.8h34.5
	c-1.4-8.8-8.1-14.6-17.2-14.6C739.8,76.2,733.1,81.8,731.7,90.8z"/>
<g>
	<polygon class="st0" points="7.8,37.1 66,37.1 66,66.2 36.8,66 36.9,95.3 7.8,95.3 	"/>
</g>
<g>
	<polygon class="st0" points="148.9,178.3 90.8,178.3 90.8,149.3 119.9,149.5 119.8,120.2 148.9,120.2 	"/>
</g>
<g>
	<polygon class="st0" points="8.3,178.4 8.3,120.2 37.3,120.2 37.1,149.4 66.4,149.3 66.4,178.4 	"/>
</g>
<g>
	<g>
		<polygon class="st1" points="119.8,66.3 119.8,8.2 148.8,8.2 148.6,37.3 177.9,37.3 177.9,66.3 		"/>
	</g>
	<g>
		<polygon class="st1" points="148.9,37.2 148.9,95.3 119.8,95.3 120,66.2 90.8,66.3 90.8,37.2 		"/>
	</g>
</g>
</svg>
